PathFileType	3	(X/Y/Z)	D:\minhoCalibration\240510\subject5_KPNP\preferred\preferred10.trc
DataRate	CameraRate	NumFrames	NumMarkers	Units	OrigDataRate	OrigDataStartFrame	OrigNumFrames
200.0	200.0	30	10	mm	200.0	240	121	
Frame#	Time	Left_Ankle_Outer1			Left_Ankle_Inner1			Left_Knee_Outer1			Left_Knee_Inner1			Left_Wrist1			Right_Wrist1			Right_Knee_Inner1			Right_Knee_Outer1			Right_Ankle_Inner1			Right_Ankle_Outer1			
		X1	Y1	Z1	X2	Y2	Z2	X3	Y3	Z3	X4	Y4	Z4	X5	Y5	Z5	X6	Y6	Z6	X7	Y7	Z7	X8	Y8	Z8	X9	Y9	Z9	X10	Y10	Z10	
240	1.19	-496.25064	76.417427	-608.04803	-535.5614	86.248428	-573.94037	-362.87982	531.3252	-530.92712	-424.84589	513.75336	-462.20923	-394.55695	975.8772	-675.62781	-573.71411	1174.0785	-483.03421	-488.29144	951.92883	-48.32777	-545.21112	1019.958	-54.49696	-502.57535	795.28845	361.81522	-592.53851	832.65491	365.2207
241	1.195	-496.39578	76.391655	-607.88373	-535.57208	85.903847	-574.58954	-363.70935	531.41376	-530.58917	-426.3342	513.63208	-462.25311	-392.5545	976.50604	-674.93085	-574.83069	1173.324	-483.35855	-491.67865	944.56439	-49.665318	-548.08472	1013.1527	-55.218796	-510.80002	780.63977	357.47458	-600.67786	818.35571	360.71719
242	1.2	-496.5752	76.31575	-607.69299	-535.15656	86.41449	-573.80804	-364.79214	531.23865	-530.00391	-428.08417	513.71368	-461.43604	-391.11368	976.8877	-673.79059	-575.82391	1172.8508	-483.76743	-495.15536	937.00458	-51.131359	-550.84857	1006.2717	-56.035706	-519.08447	766.00049	352.92578	-608.53473	803.38037	355.3718
243	1.205	-496.68396	76.301689	-607.49182	-536.10101	85.655212	-573.98279	-365.67099	531.14331	-529.44037	-430.38708	514.15442	-461.29007	-389.78769	977.24811	-672.66833	-576.61639	1172.6116	-484.2619	-498.50235	929.18164	-52.801544	-553.81061	999.10052	-56.842461	-527.64532	750.56812	347.77414	-616.88916	788.50262	349.89615
244	1.21	-496.7883	76.301682	-607.40918	-536.48547	85.393181	-574.76801	-366.54941	530.9408	-528.82196	-432.19482	514.18939	-461.69836	-388.4527	977.60498	-671.63318	-577.40973	1172.5306	-484.74127	-501.86938	921.21332	-54.646702	-556.43494	991.87317	-57.930138	-536.29462	734.93994	341.931	-625.47772	773.27014	344.01031
245	1.215	-496.89438	76.351982	-607.22406	-536.67627	85.289978	-574.12799	-367.48254	530.74475	-528.3988	-433.98694	514.37042	-461.88824	-387.25183	978.04596	-670.56543	-578.14337	1172.5447	-485.05273	-505.17874	913.17938	-56.576435	-559.00543	984.36169	-59.23613	-545.15295	718.96399	335.65994	-634.22876	757.84241	337.77606
246	1.22	-497.08804	76.335434	-606.9765	-536.51117	85.137779	-574.43842	-368.2999	530.93579	-528.21027	-435.48599	514.41919	-462.52216	-385.95895	978.52533	-669.68109	-578.86182	1172.4595	-485.47195	-508.39227	905.06848	-58.731823	-561.87433	976.66022	-60.46666	-553.54767	703.46149	328.53391	-642.46979	742.0755	330.66647
247	1.225	-497.1908	76.295914	-606.84106	-536.60345	85.193153	-574.37476	-369.09082	530.90521	-528.20221	-436.83841	514.47571	-463.3999	-384.63467	979.21277	-668.74481	-579.66589	1172.2847	-485.64661	-511.78522	896.95013	-60.933136	-564.78601	968.92645	-61.837006	-562.25586	686.93475	321.28018	-651.13879	726.14972	323.2886
248	1.23	-497.39554	76.271103	-606.68677	-537.12457	85.13504	-573.66174	-370.11081	530.91431	-528.30621	-438.41043	514.96588	-463.46042	-383.34857	979.94513	-667.86823	-580.44647	1171.9507	-485.82382	-515.0592	888.74738	-63.430733	-567.90118	960.96887	-63.370792	-571.03845	670.31451	313.53699	-659.29419	710.1814	315.2327
249	1.235	-497.58188	76.275536	-606.61273	-537.29681	85.131416	-573.73486	-370.715	531.07037	-528.8075	-439.8064	514.29187	-466.24954	-381.88998	980.95416	-666.9635	-581.40082	1171.5286	-485.94547	-518.3396	880.49109	-66.039497	-571.07855	952.69672	-65.226006	-579.61682	653.63947	305.0871	-667.82281	694.08063	306.95908
250	1.24	-497.59366	76.28669	-606.55493	-537.32886	84.643517	-574.73615	-371.3212	531.34991	-529.41425	-440.18167	514.62427	-466.9707	-380.56851	981.90344	-665.99536	-582.41022	1170.9545	-486.05145	-521.88257	872.18823	-68.879608	-574.47437	944.39099	-67.220215	-588.25714	636.7251	296.25571	-676.30219	677.70233	298.33835
251	1.245	-497.75421	76.25341	-606.46344	-536.87897	84.88015	-574.41064	-372.14774	531.56677	-530.08185	-441.03076	514.83167	-467.866	-378.89908	983.03436	-665.11151	-583.50061	1170.2432	-486.13687	-525.3266	863.79468	-72.051559	-578.20551	935.68585	-69.613121	-596.57587	620.05298	286.50278	-684.52863	661.39709	289.06223
252	1.25	-497.86139	76.190781	-606.5462	-537.48694	85.062119	-573.56964	-372.74155	531.85333	-530.84326	-441.74738	515.02533	-468.76874	-377.06537	984.40546	-664.19128	-584.66467	1169.4867	-486.15268	-528.80444	855.30548	-75.428925	-582.1665	926.97968	-72.153336	-604.97498	603.17676	276.49326	-692.66675	645.09784	279.3811
253	1.255	-497.93103	76.157127	-606.55072	-537.19104	85.669395	-572.91302	-373.25793	532.18011	-531.76239	-442.38727	515.23462	-469.67874	-375.3999	986.04547	-663.0954	-585.89972	1168.6917	-486.1651	-532.54755	846.82574	-79.12812	-586.2052	918.20551	-74.984802	-613.74298	585.64886	265.82449	-700.20667	628.31927	268.45392
254	1.26	-497.97922	76.123276	-606.5625	-537.51428	85.131012	-573.45453	-373.78461	532.46161	-532.68146	-442.96771	515.44147	-470.55865	-373.86166	987.23389	-662.06744	-587.07098	1167.7847	-486.21368	-536.19891	838.18408	-83.00016	-590.13989	909.276	-78.064369	-622.1015	568.20923	254.88753	-708.26532	612.18134	258.39569
255	1.265	-498.04547	76.120461	-606.58228	-537.18884	85.312614	-573.39874	-374.25284	532.73322	-533.58685	-443.59021	515.65692	-471.32483	-372.39087	988.46478	-661.0769	-588.23401	1166.731	-486.20724	-539.95697	829.35016	-87.121681	-594.33765	900.25415	-81.230133	-629.68896	552.12238	243.85623	-715.41309	595.3252	246.48282
256	1.27	-498.03192	76.131546	-606.66675	-537.14447	85.168358	-573.53802	-374.65237	532.90869	-534.47852	-444.12848	515.8913	-472.08597	-370.99268	989.62494	-660.06927	-589.20673	1165.4175	-486.4155	-543.91937	820.43079	-91.543282	-598.0766	891.18597	-84.950287	-636.74432	535.83032	231.62097	-723.12769	579.04346	235.27107
257	1.275	-498.19653	76.00975	-606.58411	-537.36121	85.236473	-573.47028	-375.07587	532.95691	-535.25226	-444.81879	516.48248	-472.02725	-368.7767	991.03351	-659.49512	-590.31641	1164.2948	-486.2366	-547.82477	811.30133	-96.289368	-601.86993	881.97437	-88.633667	-644.70178	518.854	219.55673	-730.58295	562.30841	223.05453
258	1.28	-498.12451	76.03125	-606.67706	-537.29755	85.075264	-573.48322	-375.33054	533.08759	-536.02222	-445.12009	516.3136	-473.7326	-367.57047	991.98816	-658.44012	-591.34985	1163.0386	-486.25507	-551.65417	802.00427	-101.24664	-605.53699	872.59967	-92.48687	-651.44312	502.55405	206.41241	-737.22198	546.01208	210.05727
259	1.285	-498.21643	75.974976	-606.68964	-537.34906	85.09774	-573.60187	-375.52026	533.10028	-536.7049	-445.17264	516.36609	-474.52264	-366.3212	992.86725	-657.44598	-592.53802	1161.8684	-486.03284	-555.45032	792.646	-106.58688	-609.15991	863.31433	-96.413078	-658.67749	485.89255	192.9256	-744.51562	529.76428	197.16928
260	1.29	-498.12448	75.998817	-606.76831	-537.36163	85.050629	-573.72833	-375.57153	533.11292	-537.26251	-445.82889	516.49493	-475.34229	-364.85638	993.81927	-656.55688	-593.59393	1160.4945	-485.86374	-559.30115	783.21991	-112.18286	-612.69952	853.86157	-100.69987	-665.29974	470.30927	179.08716	-750.97296	513.4646	183.00555
261	1.295	-498.04312	75.863976	-606.81805	-537.37537	85.091988	-573.78271	-375.74539	532.91962	-537.88983	-446.21216	516.56598	-476.13309	-363.41144	994.67212	-655.70056	-594.63831	1159.1989	-485.71866	-562.84174	773.88025	-117.88658	-616.06335	844.4917	-105.19437	-671.96344	454.40417	164.85257	-758.0401	497.40912	168.88338
262	1.3	-498.01581	75.789688	-606.87866	-537.39996	84.932976	-573.8205	-375.76147	532.83313	-538.42505	-446.5538	516.60913	-476.94791	-362.64227	995.35797	-654.50037	-595.27271	1157.4575	-486.45645	-566.42938	764.5415	-123.92026	-619.4754	835.11432	-109.83869	-678.75171	438.2457	150.10829	-764.80261	481.45166	154.00471
263	1.305	-498.04031	75.54528	-606.82373	-538.0802	84.970901	-574.54437	-375.72275	532.78015	-538.92316	-446.75241	516.52112	-477.85818	-360.78827	996.21069	-653.78192	-596.75336	1155.8392	-485.47485	-569.93219	755.44482	-129.97522	-622.7066	825.96472	-114.67747	-684.9198	423.2648	135.00465	-771.29932	465.76746	138.58409
264	1.31	-497.99609	75.449898	-606.93964	-538.22522	84.814148	-574.63983	-375.57651	532.71869	-539.45447	-446.97141	516.48969	-478.71805	-359.47861	996.94678	-652.86365	-597.75934	1153.9379	-485.33182	-573.27875	746.51874	-136.10077	-626.0235	816.81927	-119.87853	-691.38147	407.41519	119.22533	-777.58917	450.2666	122.64321
265	1.315	-497.86157	75.341248	-606.98822	-538.1886	84.66153	-574.8844	-375.58112	532.56433	-540.05115	-447.1683	516.45001	-479.51944	-358.60843	997.61279	-651.69586	-598.83252	1151.8093	-485.25104	-575.92902	737.80334	-142.86693	-629.21594	807.70905	-125.20766	-697.63477	392.07361	102.99522	-783.7514	435.03049	106.15955
266	1.32	-497.78976	75.232193	-607.01813	-538.09741	84.674019	-574.85327	-375.5033	532.48987	-540.521	-447.39618	516.37921	-480.28806	-357.23053	998.38	-650.73889	-599.90228	1149.5289	-485.18967	-579.65118	729.34723	-148.94708	-632.43927	798.78229	-130.43689	-702.91638	377.88162	86.076691	-789.80493	420.05478	89.128998
267	1.325	-497.75961	75.035416	-607.09503	-538.07526	84.572777	-574.9231	-375.44125	532.47864	-540.88977	-447.6947	516.32245	-481.16299	-355.4299	999.30493	-650.01831	-601.04962	1147.2076	-485.08728	-582.36945	720.95996	-155.35359	-635.56024	789.84827	-135.96291	-708.43073	363.4317	68.74707	-795.51874	405.38022	71.875214
268	1.33	-497.61758	74.888702	-607.22223	-538.17053	84.304375	-575.61359	-375.45172	532.38904	-541.19812	-448.02509	516.21973	-481.99872	-354.10629	999.99207	-649.02289	-602.20941	1144.8577	-485.16171	-584.8208	712.82239	-162.1869	-638.94781	780.79492	-141.94296	-715.11365	348.24417	52.705322	-800.96808	390.90302	53.777294
269	1.335	-497.35953	74.896622	-607.41089	-537.95178	84.261406	-575.69641	-375.41022	532.35779	-541.40674	-448.50241	516.14624	-482.98508	-352.79843	1000.6909	-647.97797	-603.57379	1142.5076	-485.1481	-587.91803	704.89374	-168.80139	-642.61841	772.05945	-148.53122	-719.73273	335.42117	34.520779	-806.20587	376.97134	35.57613
